<?xml version="1.0" encoding="UTF-8" standalone="no"?>
<svg
   xmlns:dc="http://purl.org/dc/elements/1.1/"
   xmlns:cc="http://creativecommons.org/ns#"
   xmlns:rdf="http://www.w3.org/1999/02/22-rdf-syntax-ns#"
   xmlns:svg="http://www.w3.org/2000/svg"
   xmlns="http://www.w3.org/2000/svg"
   xmlns:xlink="http://www.w3.org/1999/xlink"
   xmlns:sodipodi="http://sodipodi.sourceforge.net/DTD/sodipodi-0.dtd"
   xmlns:inkscape="http://www.inkscape.org/namespaces/inkscape"
   version="1.1"
   id="Layer_1"
   x="0px"
   y="0px"
   width="640px"
   height="480px"
   viewBox="0 0 640 480"
   enable-background="new 0 0 640 480"
   xml:space="preserve"
   inkscape:version="0.91 r13725"
   sodipodi:docname="splash.svg"><metadata
     id="metadata128"><rdf:RDF><cc:Work
         rdf:about=""><dc:format>image/svg+xml</dc:format><dc:type
           rdf:resource="http://purl.org/dc/dcmitype/StillImage" /><dc:title></dc:title></cc:Work></rdf:RDF></metadata><defs
     id="defs126"><linearGradient
       id="linearGradient500"><stop
         id="stop501"
         offset="0"
         style="stop-color:#3a372d;stop-opacity:0.2706;" /><stop
         id="stop502"
         offset="1"
         style="stop-color:#000700;stop-opacity:0;" /></linearGradient><linearGradient
       id="linearGradient496"><stop
         id="stop497"
         offset="0"
         style="stop-color:#003d3a;stop-opacity:1;" /><stop
         id="stop498"
         offset="1"
         style="stop-color:#ffff4f;stop-opacity:1;" /></linearGradient><linearGradient
       id="linearGradient74"><stop
         id="stop75"
         offset="0"
         style="stop-color:#f8ffff;stop-opacity:0.1137;" /><stop
         id="stop76"
         offset="1"
         style="stop-color:#ffffff;stop-opacity:1;" /></linearGradient><linearGradient
       id="linearGradient80"><stop
         id="stop81"
         offset="0"
         style="stop-color:#f79d85;stop-opacity:1;" /><stop
         id="stop82"
         offset="1"
         style="stop-color:#9e453f;stop-opacity:1;" /></linearGradient><linearGradient
       id="linearGradient76"><stop
         id="stop77-3"
         offset="0"
         style="stop-color:#fa1d2f;stop-opacity:0.2784;" /><stop
         id="stop78"
         offset="1"
         style="stop-color:#cddfff;stop-opacity:1;" /></linearGradient><linearGradient
       id="linearGradient72"><stop
         id="stop73"
         offset="0"
         style="stop-color:#e52f32;stop-opacity:0.6;" /><stop
         id="stop74"
         offset="1"
         style="stop-color:#ebd77d;stop-opacity:0.6;" /></linearGradient><linearGradient
       id="linearGradient67"><stop
         id="stop68"
         offset="0"
         style="stop-color:#ffff72;stop-opacity:0.5843;" /><stop
         id="stop69"
         offset="1"
         style="stop-color:#ffffff;stop-opacity:0;" /></linearGradient><linearGradient
       id="linearGradient63"><stop
         id="stop64"
         offset="0"
         style="stop-color:#67cf05;stop-opacity:1;" /><stop
         id="stop65-6"
         offset="1"
         style="stop-color:#ffffff;stop-opacity:1;" /></linearGradient><linearGradient
       id="linearGradient59"><stop
         id="stop60"
         offset="0"
         style="stop-color:#000000;stop-opacity:1;" /><stop
         id="stop61"
         offset="1"
         style="stop-color:#ffffff;stop-opacity:1;" /></linearGradient><linearGradient
       gradientUnits="userSpaceOnUse"
       gradientTransform="scale(1.1287956,0.8859)"
       id="linearGradient62"
       x1="122.57908"
       x2="163.08974"
       xlink:href="#linearGradient74"
       y1="84.129654"
       y2="186.48245" /><linearGradient
       id="linearGradient66"
       x1="0.047619049"
       x2="0.96825403"
       xlink:href="#linearGradient67"
       y1="0.234375"
       y2="0.34375" /><linearGradient
       id="linearGradient71"
       x1="0.87199998"
       x2="0.56"
       xlink:href="#linearGradient496"
       y1="0.52343702"
       y2="0.52343702" /><linearGradient
       id="linearGradient75"
       x1="0.069960997"
       x2="0.473937"
       xlink:href="#linearGradient76"
       y1="0.89142901"
       y2="0.125714" /><linearGradient
       id="linearGradient79"
       x1="0.76292002"
       x2="0.510517"
       xlink:href="#linearGradient80"
       y1="0.079999998"
       y2="0.41714299" /><linearGradient
       id="linearGradient73"
       x1="0.398693"
       x2="0.496732"
       xlink:href="#linearGradient74"
       y1="1.03769"
       y2="-0.0104677" /><linearGradient
       id="linearGradient495"
       x1="0.26932701"
       x2="0.58059698"
       xlink:href="#linearGradient496"
       y1="0.23999999"
       y2="0.491429" /><linearGradient
       id="linearGradient505"
       x1="0.63817698"
       x2="0.46477899"
       xlink:href="#linearGradient500"
       y1="0.36571401"
       y2="0.45714301" /><linearGradient
       id="linearGradient509"
       x1="0"
       x2="1"
       xlink:href="#linearGradient500"
       y1="0"
       y2="1" /></defs><sodipodi:namedview
     pagecolor="#ffffff"
     bordercolor="#666666"
     borderopacity="1"
     objecttolerance="10"
     gridtolerance="10"
     guidetolerance="10"
     inkscape:pageopacity="0"
     inkscape:pageshadow="2"
     inkscape:window-width="1680"
     inkscape:window-height="1026"
     id="namedview124"
     showgrid="false"
     inkscape:showpageshadow="true"
     inkscape:zoom="1"
     inkscape:cx="328.60602"
     inkscape:cy="183.1482"
     inkscape:window-x="1366"
     inkscape:window-y="24"
     inkscape:window-maximized="1"
     inkscape:current-layer="Layer_1"
     showborder="true"
     showguides="false" /><radialGradient
     id="background_1_"
     cx="739.7764"
     cy="47.0376"
     r="855.789"
     fx="650.5538"
     fy="51.8628"
     gradientTransform="matrix(0.77306734,0,0,1.0019435,3.9566188,5.8556531)"
     gradientUnits="userSpaceOnUse"><stop
       offset="0"
       style="stop-color:#073246"
       id="stop4" /><stop
       offset="0.1012"
       style="stop-color:#144352"
       id="stop6" /><stop
       offset="0.3207"
       style="stop-color:#357177"
       id="stop8" /><stop
       offset="0.4409"
       style="stop-color:#489291"
       id="stop10" /><stop
       offset="0.5707"
       style="stop-color:#37757B"
       id="stop12" /><stop
       offset="0.8567"
       style="stop-color:#164353"
       id="stop14" /><stop
       offset="0.9891"
       style="stop-color:#063246"
       id="stop16" /></radialGradient><rect
     id="rect3378"
     width="640"
     height="480"
     x="0"
     y="-9.7699626e-15" /><g
     id="swirl"
     transform="matrix(0.61861816,0,0,0.61976262,184.46353,148.79824)"><radialGradient
       id="SVGID_1_"
       cx="552.4375"
       cy="377.9375"
       r="3.3803999"
       gradientTransform="matrix(1.0725,0,0,0.9931,-22.7588,-0.2271)"
       gradientUnits="userSpaceOnUse"><stop
         offset="0"
         style="stop-color:#FFF1E9"
         id="stop21" /><stop
         offset="1"
         style="stop-color:#FFFFFF;stop-opacity:0.2"
         id="stop23" /></radialGradient><path
       d="m 566.125,374.093 c -3.433,0.049 0.649,1.765 5.129,2.455 1.239,-0.966 2.363,-1.94 3.36,-2.891 -2.79,0.681 -5.628,0.697 -8.489,0.436"
       id="path25"
       style="fill:url(#SVGID_1_)"
       inkscape:connector-curvature="0" /><radialGradient
       id="SVGID_2_"
       cx="567.14551"
       cy="367.72949"
       r="3.8273001"
       gradientTransform="matrix(1.0725,0,0,0.9931,-22.7588,-0.2271)"
       gradientUnits="userSpaceOnUse"><stop
         offset="0"
         style="stop-color:#FFF1E9"
         id="stop28" /><stop
         offset="1"
         style="stop-color:#FFFFFF;stop-opacity:0.2"
         id="stop30" /></radialGradient><path
       d="m 584.549,369.508 c 2.043,-2.814 3.534,-5.898 4.059,-9.086 -0.459,2.271 -1.694,4.234 -2.855,6.303 -6.416,4.034 -0.606,-2.393 -0.005,-4.837 -6.899,8.669 -0.951,5.199 -1.199,7.62"
       id="path32"
       style="fill:url(#SVGID_2_)"
       inkscape:connector-curvature="0" /><radialGradient
       id="SVGID_3_"
       cx="571.80371"
       cy="352.84381"
       r="1.8586"
       gradientTransform="matrix(1.0725,0,0,0.9931,-22.7588,-0.2271)"
       gradientUnits="userSpaceOnUse"><stop
         offset="0"
         style="stop-color:#FFF1E9"
         id="stop35" /><stop
         offset="1"
         style="stop-color:#FFFFFF;stop-opacity:0.2"
         id="stop37" /></radialGradient><path
       d="m 591.352,351.844 c 0.413,-6.171 -1.219,-4.22 -1.769,-1.863 0.64,0.33 1.149,4.347 1.769,1.863"
       id="path39"
       style="fill:url(#SVGID_3_)"
       inkscape:connector-curvature="0" /><radialGradient
       id="SVGID_4_"
       cx="539.26947"
       cy="270.10641"
       r="1.6877"
       gradientTransform="matrix(1.0725,0,0,0.9931,-22.7588,-0.2271)"
       gradientUnits="userSpaceOnUse"><stop
         offset="0"
         style="stop-color:#FFF1E9"
         id="stop42" /><stop
         offset="1"
         style="stop-color:#FFFFFF;stop-opacity:0.2"
         id="stop44" /></radialGradient><path
       d="m 553.106,267.506 c 1.833,0.329 3.96,0.58 3.66,1.019 2.005,-0.442 2.46,-0.842 -3.66,-1.019"
       id="path46"
       style="fill:url(#SVGID_4_)"
       inkscape:connector-curvature="0" /><radialGradient
       id="SVGID_5_"
       cx="539.74799"
       cy="270.7529"
       r="0.4364"
       gradientTransform="matrix(1.0725,0,0,0.9931,-22.7588,-0.2271)"
       gradientUnits="userSpaceOnUse"><stop
         offset="0"
         style="stop-color:#FFF1E9"
         id="stop49" /><stop
         offset="1"
         style="stop-color:#FFFFFF;stop-opacity:0.2"
         id="stop51" /></radialGradient><path
       d="m 556.767,268.524 -1.293,0.266 1.203,-0.105 0.09,-0.161"
       id="path53"
       style="fill:url(#SVGID_5_)"
       inkscape:connector-curvature="0" /><radialGradient
       id="SVGID_6_"
       cx="534.47559"
       cy="371.7637"
       r="91.161301"
       gradientTransform="matrix(1.0725,0,0,0.9931,-22.7588,-0.2271)"
       gradientUnits="userSpaceOnUse"><stop
         offset="0"
         style="stop-color:#FFF1E9"
         id="stop56" /><stop
         offset="1"
         style="stop-color:#FFFFFF;stop-opacity:0.2"
         id="stop58" /></radialGradient><path
       d="m 613.893,354.184 c 0.204,5.541 -1.623,8.23 -3.272,12.989 l -2.969,1.479 c -2.427,4.707 0.236,2.987 -1.501,6.729 -3.791,3.366 -11.503,10.528 -13.972,11.179 -1.8,-0.036 1.223,-2.122 1.616,-2.938 -5.072,3.479 -4.067,5.223 -11.828,7.336 l -0.228,-0.503 c -19.139,8.985 -45.722,-8.824 -45.371,-33.125 -0.207,1.544 -0.579,1.159 -1.007,1.782 -0.986,-12.503 5.787,-25.061 17.206,-30.188 11.173,-5.521 24.269,-3.255 32.272,4.188 -4.396,-5.748 -13.144,-11.838 -23.516,-11.27 -10.157,0.162 -19.656,6.603 -22.827,13.598 -5.206,3.272 -5.808,12.607 -8.076,14.314 -3.051,22.381 5.736,32.048 20.603,43.422 2.341,1.576 0.665,1.813 0.98,3.011 -4.941,-2.307 -9.463,-5.794 -13.182,-10.059 1.973,2.882 4.102,5.685 6.855,7.89 -4.66,-1.575 -10.881,-11.27 -12.698,-11.663 8.029,14.351 32.573,25.166 45.426,19.799 -5.944,0.222 -13.502,0.122 -20.185,-2.34 -2.804,-1.443 -6.622,-4.43 -5.937,-4.988 17.539,6.54 35.657,4.952 50.836,-7.189 3.859,-3.002 8.078,-8.106 9.294,-8.177 -1.833,2.751 0.316,1.321 -1.095,3.755 3.85,-6.192 -1.672,-2.52 3.975,-10.694 l 2.088,2.866 c -0.775,-5.138 6.397,-11.384 5.67,-19.514 1.644,-2.487 1.834,2.676 0.089,8.396 2.422,-6.345 0.639,-7.364 1.259,-12.6 0.674,1.757 1.557,3.628 2.009,5.483 -1.578,-6.129 1.62,-10.325 2.41,-13.889 -0.776,-0.345 -2.435,2.71 -2.813,-4.533 0.058,-3.146 0.878,-1.648 1.196,-2.423 -0.62,-0.356 -2.243,-2.767 -3.232,-7.394 0.717,-1.084 1.912,2.817 2.89,2.979 -0.626,-3.678 -1.707,-6.481 -1.75,-9.303 -2.846,-5.939 -1.005,0.788 -3.318,-2.551 -3.027,-9.435 2.517,-2.191 2.89,-6.476 4.594,6.643 7.211,16.936 8.412,21.196 -0.917,-5.196 -2.398,-10.231 -4.209,-15.105 1.396,0.586 -2.244,-10.691 1.813,-3.224 -4.335,-15.927 -18.555,-30.806 -31.643,-37.785 1.603,1.458 3.622,7.11 2.897,7.397 -6.508,-3.867 -5.363,-7.981 -6.294,-9.615 -5.304,-2.151 -5.648,0.172 -9.159,0.005 -9.992,-5.29 -11.918,-4.728 -21.112,-8.043 l 0.42,1.952 c -6.622,-2.201 -7.713,0.834 -14.867,0.006 -0.436,-0.338 2.292,-1.226 4.538,-1.554 -6.397,0.844 -6.101,-1.258 -12.361,0.23 1.543,-1.081 3.174,-1.795 4.821,-2.714 -5.219,0.315 -12.46,3.033 -10.223,0.564 -8.516,3.79 -23.633,9.112 -32.116,17.053 l -0.266,-1.779 c -3.889,4.657 -16.953,13.911 -17.992,19.945 l -1.041,0.24 c -2.021,3.42 -3.332,7.296 -4.936,10.809 -2.646,4.503 -3.879,1.736 -3.502,2.439 -5.2,10.531 -7.788,19.382 -10.021,26.636 1.591,2.377 0.038,14.294 0.638,23.832 -2.613,47.106 33.121,92.84 72.184,103.402 5.724,2.044 14.237,1.967 21.479,2.175 -8.543,-2.438 -9.65,-1.291 -17.972,-4.19 -6.003,-2.817 -7.321,-6.043 -11.572,-9.725 l 1.686,2.967 c -8.343,-2.948 -4.853,-3.647 -11.639,-5.792 l 1.797,-2.343 c -2.702,-0.204 -7.159,-4.548 -8.376,-6.951 l -2.957,0.117 c -3.557,-4.38 -5.447,-7.53 -5.311,-9.973 l -0.953,1.697 c -1.083,-1.854 -13.076,-16.415 -6.854,-13.023 -1.154,-1.057 -2.692,-1.717 -4.356,-4.739 l 1.268,-1.443 c -2.994,-3.845 -5.511,-8.771 -5.319,-10.412 1.595,2.15 2.704,2.552 3.802,2.924 -7.561,-18.724 -7.982,-1.032 -13.711,-19.059 l 1.214,-0.097 c -0.93,-1.394 -1.494,-2.909 -2.237,-4.4 l 0.524,-5.244 c -5.442,-6.277 -1.522,-26.707 -0.737,-37.907 0.543,-4.555 4.542,-9.402 7.584,-17.009 l -1.853,-0.317 c 3.543,-6.166 20.222,-24.764 27.946,-23.806 3.744,-4.694 -0.741,-0.021 -1.473,-1.2 8.22,-8.491 10.806,-6.001 16.351,-7.527 5.982,-3.544 -5.136,1.383 -2.294,-1.353 10.34,-2.639 7.327,-5.995 20.816,-7.332 1.424,0.808 -3.3,1.246 -4.486,2.296 8.615,-4.206 27.267,-3.249 39.383,2.337 14.059,6.56 29.852,25.944 30.477,44.18 l 0.709,0.19 c -0.36,7.25 1.108,15.633 -1.436,23.336 l 1.732,-3.642"
       id="path60"
       style="fill:url(#SVGID_6_)"
       inkscape:connector-curvature="0" /><radialGradient
       id="SVGID_7_"
       cx="516.91992"
       cy="387.2793"
       r="4.5840001"
       gradientTransform="matrix(1.0725,0,0,0.9931,-22.7588,-0.2271)"
       gradientUnits="userSpaceOnUse"><stop
         offset="0"
         style="stop-color:#FFF1E9"
         id="stop63" /><stop
         offset="1"
         style="stop-color:#FFFFFF;stop-opacity:0.2"
         id="stop65" /></radialGradient><path
       d="m 528.655,378.797 -0.481,2.4 c 2.256,3.059 4.047,6.374 6.928,8.765 -2.075,-4.037 -3.613,-5.706 -6.447,-11.165"
       id="path67"
       style="fill:url(#SVGID_7_)"
       inkscape:connector-curvature="0" /><radialGradient
       id="SVGID_8_"
       cx="518.35162"
       cy="380.75201"
       r="2.9717"
       gradientTransform="matrix(1.0725,0,0,0.9931,-22.7588,-0.2271)"
       gradientUnits="userSpaceOnUse"><stop
         offset="0"
         style="stop-color:#FFF1E9"
         id="stop70" /><stop
         offset="1"
         style="stop-color:#FFFFFF;stop-opacity:0.2"
         id="stop72" /></radialGradient><path
       d="m 533.989,378.589 c -1.191,-1.319 -1.901,-2.907 -2.69,-4.488 0.754,2.777 2.306,5.165 3.748,7.593 l -1.058,-3.105"
       id="path74"
       style="fill:url(#SVGID_8_)"
       inkscape:connector-curvature="0" /><radialGradient
       id="SVGID_9_"
       cx="604.08398"
       cy="371.05859"
       r="7.5440001"
       gradientTransform="matrix(1.0725,0,0,0.9931,-22.7588,-0.2271)"
       gradientUnits="userSpaceOnUse"><stop
         offset="0"
         style="stop-color:#FFF1E9"
         id="stop77" /><stop
         offset="1"
         style="stop-color:#FFFFFF;stop-opacity:0.2"
         id="stop79" /></radialGradient><path
       d="m 628.363,358.111 -0.505,1.263 c -0.922,6.556 -2.919,13.044 -5.979,19.058 3.38,-6.348 5.568,-13.289 6.484,-20.321"
       id="path81"
       style="fill:url(#SVGID_9_)"
       inkscape:connector-curvature="0" /><radialGradient
       id="SVGID_10_"
       cx="540.73053"
       cy="267.4238"
       r="3.1712"
       gradientTransform="matrix(1.0725,0,0,0.9931,-22.7588,-0.2271)"
       gradientUnits="userSpaceOnUse"><stop
         offset="0"
         style="stop-color:#FFF1E9"
         id="stop84" /><stop
         offset="1"
         style="stop-color:#FFFFFF;stop-opacity:0.2"
         id="stop86" /></radialGradient><path
       d="m 553.787,265.863 c 2.318,-0.848 5.704,-0.466 8.165,-1.023 -3.21,0.267 -6.4,0.429 -9.557,0.835 l 1.392,0.188"
       id="path88"
       style="fill:url(#SVGID_10_)"
       inkscape:connector-curvature="0" /><radialGradient
       id="SVGID_11_"
       cx="461.86719"
       cy="314.1152"
       r="2.1212001"
       gradientTransform="matrix(1.0725,0,0,0.9931,-22.7588,-0.2271)"
       gradientUnits="userSpaceOnUse"><stop
         offset="0"
         style="stop-color:#FFF1E9"
         id="stop91" /><stop
         offset="1"
         style="stop-color:#FFFFFF;stop-opacity:0.2"
         id="stop93" /></radialGradient><path
       d="m 472.303,309.113 c 0.534,4.942 -3.726,6.859 0.944,3.601 2.499,-5.628 -0.98,-1.553 -0.944,-3.601"
       id="path95"
       style="fill:url(#SVGID_11_)"
       inkscape:connector-curvature="0" /><radialGradient
       id="SVGID_12_"
       cx="457.18951"
       cy="330.90631"
       r="2.6271"
       gradientTransform="matrix(1.0725,0,0,0.9931,-22.7588,-0.2271)"
       gradientUnits="userSpaceOnUse"><stop
         offset="0"
         style="stop-color:#FFF1E9"
         id="stop98" /><stop
         offset="1"
         style="stop-color:#FFFFFF;stop-opacity:0.2"
         id="stop100" /></radialGradient><path
       d="m 466.816,331.986 c 1.074,-3.295 1.27,-5.273 1.679,-7.181 -2.969,3.795 -1.366,4.601 -1.679,7.181"
       id="path102"
       style="fill:url(#SVGID_12_)"
       inkscape:connector-curvature="0" /></g><g
     id="g4466"
     transform="matrix(0.5407545,0,0,0.5407545,265.4955,268.35539)"><g
       transform="matrix(2.283136,0,0,2.283252,434.53829,-750.50694)"
       id="g106"
       style="opacity:0.8"><path
         enable-background="new    "
         d="m 30.996,450.854 c -0.025,0.027 -0.025,4.313 -0.08,5.434 -0.053,0.904 -0.133,2.85 -2.05,2.85 -1.971,0 -2.45,-2.266 -2.609,-3.252 -0.186,-1.09 -0.186,-1.997 -0.186,-2.395 0,-1.279 0.08,-4.849 3.089,-4.849 0.904,0 1.411,0.267 1.811,0.479 l 0.025,1.733 z m -7.722,3.142 c 0,7.512 3.995,7.512 4.582,7.512 1.65,0 2.716,-0.907 3.167,-2.477 l 0.054,2.37 c 0.506,-0.03 1.012,-0.081 1.837,-0.081 0.293,0 0.532,0 0.747,0.026 0.213,0 0.425,0.026 0.666,0.056 -0.426,-0.853 -0.746,-2.771 -0.746,-6.928 0,-4.047 0,-10.89 0.346,-12.968 -0.958,0.454 -1.785,0.746 -3.595,0.906 0.719,0.771 0.719,1.172 0.719,4.685 -0.505,-0.158 -1.144,-0.346 -2.235,-0.346 -4.77,0.001 -5.542,4.156 -5.542,7.245"
         id="path108"
         inkscape:connector-curvature="0"
         style="opacity:0.8;fill:#ffffff" /><path
         enable-background="new    "
         d="m 37.715,452.638 c 0.027,-2.211 0.48,-4.181 2.37,-4.181 2.077,0 2.236,2.289 2.183,4.181 l -4.553,0 z m 7.19,0.267 c 0,-3.118 -0.612,-6.18 -4.554,-6.18 -5.431,0 -5.431,6.02 -5.431,7.297 0,5.404 2.421,7.535 6.496,7.535 1.811,0 2.69,-0.267 3.169,-0.397 -0.025,-0.961 0.107,-1.571 0.268,-2.398 -0.56,0.348 -1.279,0.8 -2.878,0.8 -4.153,0 -4.207,-3.783 -4.207,-5.089 l 7.085,0 0.052,-1.568"
         id="path110"
         inkscape:connector-curvature="0"
         style="opacity:0.8;fill:#ffffff" /><path
         enable-background="new    "
         d="m 53.567,454.049 c 0,2.476 -0.453,5.809 -3.541,5.809 -0.427,0 -0.958,-0.083 -1.304,-0.163 -0.055,-0.959 -0.055,-2.61 -0.055,-4.527 0,-2.289 0.239,-3.486 0.427,-4.074 0.559,-1.891 1.811,-1.916 2.049,-1.916 2.025,-10e-4 2.424,2.795 2.424,4.871 z m -7.641,2.902 c 0,1.973 0,3.092 -0.319,3.941 1.09,0.427 2.449,0.665 4.075,0.665 1.037,0 4.046,0 5.67,-3.327 0.773,-1.545 1.039,-3.623 1.039,-5.194 0,-0.959 -0.106,-3.062 -0.879,-4.394 -0.745,-1.25 -1.943,-1.891 -3.221,-1.891 -2.557,0 -3.301,2.131 -3.701,3.223 0,-1.357 0.026,-6.099 0.239,-8.521 -1.73,0.799 -2.797,0.932 -3.94,1.039 1.038,0.425 1.038,2.184 1.038,7.909 l 0,6.55"
         id="path112"
         inkscape:connector-curvature="0"
         style="opacity:0.8;fill:#ffffff" /><path
         enable-background="new    "
         d="m 61.511,461.401 c -0.534,-0.081 -0.908,-0.134 -1.68,-0.134 -0.851,0 -1.438,0.053 -2.05,0.134 0.267,-0.509 0.373,-0.751 0.453,-2.479 0.106,-2.371 0.134,-8.709 -0.052,-10.041 -0.134,-1.013 -0.373,-1.171 -0.746,-1.438 2.184,-0.214 2.795,-0.372 3.808,-0.853 -0.213,1.171 -0.24,1.758 -0.24,3.542 -0.053,9.19 -0.082,10.178 0.507,11.269"
         id="path114"
         inkscape:connector-curvature="0"
         style="opacity:0.8;fill:#ffffff" /><path
         enable-background="new    "
         d="m 70.037,453.861 c -0.054,1.678 -0.08,2.852 -0.534,3.782 -0.559,1.198 -1.49,1.545 -2.184,1.545 -1.599,0 -1.944,-1.331 -1.944,-2.637 0,-2.503 2.238,-2.691 3.249,-2.691 l 1.413,10e-4 0,0 0,0 z m -7.324,3.278 c 0,1.677 0.507,3.355 1.998,4.075 0.666,0.294 1.331,0.294 1.545,0.294 2.451,0 3.275,-1.813 3.781,-2.934 -0.027,1.172 0,1.894 0.081,2.827 0.479,-0.03 0.958,-0.082 1.757,-0.082 0.453,0 0.878,0.052 1.33,0.082 -0.293,-0.454 -0.452,-0.722 -0.532,-1.759 -0.053,-1.012 -0.053,-2.025 -0.053,-3.438 l 0.027,-5.432 c 0,-2.024 -0.534,-4.022 -4.528,-4.022 -2.636,0 -4.18,0.8 -4.952,1.2 0.32,0.585 0.586,1.09 0.826,2.237 1.04,-0.907 2.398,-1.387 3.781,-1.387 2.212,0 2.212,1.467 2.212,3.54 -0.507,-0.024 -0.934,-0.076 -1.653,-0.076 -3.383,0.003 -5.62,1.306 -5.62,4.875"
         id="path116"
         inkscape:connector-curvature="0"
         style="opacity:0.8;fill:#ffffff" /><path
         enable-background="new    "
         d="m 85.374,458.763 c 0.027,0.907 0.027,1.864 0.4,2.639 -0.587,-0.055 -0.934,-0.134 -2.023,-0.134 -0.64,0 -0.986,0.053 -1.493,0.134 0.106,-0.348 0.16,-0.479 0.214,-0.933 0.08,-0.611 0.133,-2.664 0.133,-3.385 l 0,-2.876 c 0,-1.25 0,-3.063 -0.081,-3.701 -0.053,-0.451 -0.186,-1.678 -1.73,-1.678 -1.518,0 -2.024,1.118 -2.21,2.024 -0.211,0.932 -0.211,1.943 -0.211,5.886 0.025,3.409 0.025,3.729 0.292,4.662 -0.453,-0.056 -1.011,-0.109 -1.809,-0.109 -0.641,0 -1.067,0.027 -1.598,0.109 0.186,-0.426 0.294,-0.642 0.346,-2.132 0.055,-1.464 0.161,-8.656 -0.08,-10.36 -0.134,-1.038 -0.399,-1.276 -0.692,-1.543 2.157,-0.107 2.85,-0.453 3.516,-0.799 l 0,2.822 c 0.319,-0.828 0.985,-2.664 3.648,-2.664 3.327,0 3.354,2.423 3.381,4.021 l 0,8.017"
         id="path118"
         inkscape:connector-curvature="0"
         style="opacity:0.8;fill:#ffffff" /><path
         enable-background="new    "
         d="m 61.734,442.824 -2.206,2.204 -2.205,-2.204 2.206,-2.204 2.205,2.204"
         id="path120"
         inkscape:connector-curvature="0"
         style="opacity:0.8;fill:#ffffff" /></g><g
       id="text3049"
       style="font-style:normal;font-variant:normal;font-weight:bold;font-stretch:normal;font-size:14.5px;line-height:125%;font-family:'Liberation Sans';-inkscape-font-specification:'Liberation Sans Bold';letter-spacing:0px;word-spacing:0px;fill:#b3c8cb;fill-opacity:1;stroke:none"><path
         id="path3822"
         d="m 557.30756,316.90244 c 0.30207,0 0.59236,-0.0236 0.87085,-0.0708 0.27847,-0.0472 0.53571,-0.10856 0.77172,-0.18408 0.24072,-0.0802 0.45548,-0.16992 0.64429,-0.26904 0.19352,-0.10384 0.35164,-0.21004 0.47437,-0.3186 l 0,-1.38062 -2.43555,0 0,-1.54346 4.34717,0 0,3.66748 c -0.22657,0.23129 -0.50034,0.45313 -0.82129,0.66553 -0.32097,0.20768 -0.68206,0.39177 -1.08325,0.55225 -0.40122,0.15576 -0.84018,0.28084 -1.3169,0.37524 -0.47201,0.0944 -0.97469,0.1416 -1.50805,0.1416 -0.88266,0 -1.64259,-0.12744 -2.27979,-0.38232 -0.63721,-0.2596 -1.16113,-0.61833 -1.57178,-1.07617 -0.41064,-0.46257 -0.71509,-1.01009 -0.91333,-1.64258 -0.19352,-0.63248 -0.29028,-1.32397 -0.29028,-2.07446 0,-0.77881 0.10384,-1.48209 0.31152,-2.10987 0.20768,-0.62776 0.52157,-1.16112 0.94165,-1.60009 0.42481,-0.44368 0.95581,-0.78352 1.59302,-1.01954 0.64192,-0.24071 1.39477,-0.36107 2.25855,-0.36108 0.62776,10e-6 1.18472,0.0614 1.67089,0.18408 0.49088,0.12273 0.91805,0.29738 1.2815,0.52393 0.36815,0.22657 0.67496,0.50033 0.92041,0.82129 0.25015,0.31625 0.44839,0.67261 0.59473,1.06909 l -1.92579,0.58057 c -0.085,-0.20768 -0.19825,-0.40356 -0.33984,-0.58765 -0.14161,-0.1888 -0.31861,-0.35164 -0.53101,-0.48853 -0.20768,-0.14159 -0.45077,-0.25251 -0.72924,-0.33276 -0.27377,-0.0849 -0.58766,-0.12743 -0.94165,-0.12744 -0.51921,1e-5 -0.96762,0.0826 -1.34522,0.2478 -0.37761,0.16049 -0.68913,0.39177 -0.93457,0.69385 -0.24544,0.30209 -0.42717,0.66553 -0.54517,1.09033 -0.118,0.42009 -0.177,0.8921 -0.177,1.41602 0,0.51921 0.059,0.99593 0.177,1.43017 0.12272,0.43425 0.30681,0.80713 0.55225,1.11865 0.25016,0.31153 0.56404,0.55461 0.94165,0.72925 0.3776,0.17465 0.82365,0.26197 1.33814,0.26197"
         inkscape:connector-curvature="0" /><path
         id="path3824"
         d="m 569.91718,318.39633 -4.34717,-7.68188 c 0.0236,0.20769 0.0448,0.41537 0.0637,0.62304 0.0189,0.17937 0.033,0.37289 0.0425,0.58057 0.0142,0.20769 0.0212,0.40593 0.0212,0.59473 l 0,5.88354 -1.85498,0 0,-9.97583 2.38598,0 4.41089,7.74561 c -0.0236,-0.19824 -0.0448,-0.40592 -0.0637,-0.62305 -0.0189,-0.18408 -0.0354,-0.39176 -0.0496,-0.62305 -0.009,-0.23128 -0.0142,-0.46492 -0.0142,-0.70092 l 0,-5.79859 1.85498,0 0,9.97583 -2.4497,0"
         inkscape:connector-curvature="0" /><path
         id="path3826"
         d="m 578.46991,318.53793 c -0.62305,0 -1.19418,-0.0732 -1.71338,-0.21948 -0.51921,-0.15104 -0.96761,-0.38232 -1.34521,-0.69385 -0.37289,-0.31624 -0.66553,-0.7198 -0.87793,-1.21069 -0.20769,-0.49088 -0.31153,-1.07617 -0.31153,-1.75586 l 0,-6.23755 2.08863,0 0,6.07471 c -10e-6,0.42009 0.0519,0.78353 0.15576,1.09033 0.10384,0.30209 0.25252,0.55225 0.44604,0.75049 0.19352,0.19352 0.42716,0.33748 0.70093,0.43188 0.27376,0.0897 0.5782,0.13453 0.91333,0.13453 0.33984,0 0.65136,-0.0472 0.93457,-0.14161 0.28792,-0.0991 0.53336,-0.25016 0.73633,-0.45312 0.20767,-0.20296 0.36816,-0.4602 0.48144,-0.77173 0.11328,-0.31152 0.16992,-0.68204 0.16993,-1.11157 l 0,-6.00391 2.08862,0 0,6.13135 c -1e-5,0.68441 -0.11093,1.27678 -0.33276,1.7771 -0.22186,0.50033 -0.53102,0.91569 -0.92749,1.24609 -0.3965,0.32569 -0.8685,0.56877 -1.41602,0.72925 -0.54281,0.15576 -1.1399,0.23364 -1.79126,0.23364"
         inkscape:connector-curvature="0" /><path
         id="path3828"
         d="m 583.97113,318.68661 2.0603,-10.79711 1.68506,0 -2.0249,10.79711 -1.72046,0"
         inkscape:connector-curvature="0" /><path
         id="path3830"
         d="m 588.82098,318.39633 0,-9.97583 2.08863,0 0,8.36157 5.35254,0 0,1.61426 -7.44117,0"
         inkscape:connector-curvature="0" /><path
         id="path3832"
         d="m 597.72772,309.35507 0,-1.46557 1.9895,0 0,1.46557 -1.9895,0 m 0,9.04126 0,-7.66064 1.9895,0 0,7.66064 -1.9895,0"
         inkscape:connector-curvature="0" /><path
         id="path3834"
         d="m 606.71234,318.39633 0,-4.29761 c 0,-0.29735 -0.0236,-0.56876 -0.0708,-0.8142 -0.0472,-0.25016 -0.12509,-0.46256 -0.23364,-0.63721 -0.10857,-0.17936 -0.25017,-0.3186 -0.42481,-0.41773 -0.17464,-0.0991 -0.38705,-0.14867 -0.6372,-0.14868 -0.24073,1e-5 -0.46021,0.0543 -0.65845,0.16284 -0.19353,0.10385 -0.36109,0.25489 -0.50269,0.45313 -0.1416,0.19353 -0.25252,0.42717 -0.33276,0.70093 -0.0755,0.26904 -0.11328,0.56641 -0.11328,0.89209 l 0,4.10644 -1.9895,0 0,-5.94726 c 0,-0.1652 -0.002,-0.33512 -0.007,-0.50977 0,-0.17463 -0.005,-0.33984 -0.0142,-0.4956 -0.005,-0.16048 -0.009,-0.30208 -0.0142,-0.42481 -0.005,-0.12743 -0.0118,-0.22183 -0.0212,-0.2832 l 1.89746,0 c 0.009,0.0567 0.0189,0.14869 0.0283,0.27612 0.009,0.12273 0.0189,0.25961 0.0283,0.41064 0.009,0.15105 0.0165,0.30209 0.0212,0.45313 0.009,0.15105 0.0141,0.27849 0.0142,0.38232 l 0.0283,0 c 0.26904,-0.58528 0.60652,-1.01008 1.01245,-1.27441 0.40592,-0.26432 0.88972,-0.39648 1.45142,-0.39648 0.46255,0 0.85196,0.0755 1.16821,0.22656 0.32095,0.15105 0.58056,0.35873 0.77881,0.62304 0.20295,0.26433 0.34927,0.57586 0.43896,0.93458 0.0897,0.35872 0.13452,0.74577 0.13452,1.16113 l 0,4.86401 -1.98242,0"
         inkscape:connector-curvature="0" /><path
         id="path3836"
         d="m 612.48969,310.73569 0,4.2976 c -10e-6,0.29737 0.0236,0.57113 0.0708,0.82129 0.0472,0.24545 0.12507,0.45785 0.23364,0.63721 0.10856,0.17464 0.2478,0.31153 0.41772,0.41065 0.17464,0.0991 0.38704,0.14868 0.63721,0.14868 0.24072,0 0.45784,-0.0519 0.65137,-0.15576 0.19823,-0.10856 0.36816,-0.25961 0.50976,-0.45313 0.1416,-0.19824 0.25016,-0.43188 0.32569,-0.70093 0.0802,-0.27376 0.12035,-0.57348 0.12036,-0.89917 l 0,-4.10644 1.9895,0 0,5.94726 c -10e-6,0.16049 -10e-6,0.33041 0,0.50977 0.005,0.17464 0.009,0.3422 0.0142,0.50268 0.009,0.15577 0.0165,0.29737 0.0212,0.42481 0.009,0.12272 0.0165,0.21476 0.0212,0.27612 l -1.89746,0 c -0.005,-0.0566 -0.0142,-0.14632 -0.0283,-0.26904 -0.009,-0.12744 -0.0189,-0.26668 -0.0283,-0.41773 -0.005,-0.15104 -0.0118,-0.30208 -0.0212,-0.45312 -0.005,-0.15104 -0.007,-0.27848 -0.007,-0.38233 l -0.0354,0 c -0.26433,0.58057 -0.60181,1.00302 -1.01245,1.26734 -0.40593,0.26432 -0.88974,0.39648 -1.45142,0.39648 -0.45785,0 -0.84725,-0.0755 -1.16821,-0.22656 -0.32097,-0.15104 -0.58293,-0.35636 -0.78589,-0.61597 -0.19824,-0.26432 -0.34221,-0.57584 -0.43189,-0.93457 -0.0897,-0.35872 -0.13452,-0.74576 -0.13452,-1.16113 l 0,-4.86401 1.98951,0"
         inkscape:connector-curvature="0" /><path
         id="path3838"
         d="m 624.26385,318.39633 -1.78417,-2.77539 -1.79834,2.77539 -2.11695,0 2.80371,-3.95776 -2.66919,-3.70288 2.14527,0 1.6355,2.50634 1.62841,-2.50634 2.15943,0 -2.66919,3.68164 2.82495,3.979 -2.15943,0"
         inkscape:connector-curvature="0" /></g></g><g
     id="g4451"
     transform="matrix(0.75587625,0,0,0.75587625,46.47185,-13.00767)"><g
       transform="matrix(0.58191873,0,0,0.58191873,339.28044,89.92337)"
       id="g3418"><path
         inkscape:connector-curvature="0"
         d="M 61.34007,151.6791 C 44.95862,176.4387 10.65432,384.2753 27.80424,411.2167 38.2886,426.3828 349.7689,406.3267 384.166,379.0718 419.2937,340.8387 453.2881,35.22791 397.3341,13.05935 354.1351,-0.395897 91.7926,125.8641 61.34007,151.6791 Z"
         id="path597"
         style="font-size:12px;fill:#7a7489;fill-opacity:1;fill-rule:evenodd;stroke:#0067ff;stroke-width:12.39830017;stroke-opacity:1" /><path
         inkscape:connector-curvature="0"
         d="M 83.99599,164.3656 39.68655,391.5007 350.4834,350.5736 371.0336,40.77949 83.99599,164.3656 Z"
         id="path595"
         style="font-size:12px;fill-opacity:1;fill-rule:evenodd" /><path
         inkscape:connector-curvature="0"
         d="M 80.72239,162.3259 36.28155,395.3649 359.3802,363.4435 369.9559,39.22121 80.72239,162.3259 Z"
         id="path598"
         style="font-size:12px;fill:#00b4ff;fill-opacity:1;fill-rule:evenodd;stroke:#004900;stroke-width:8.54303837;stroke-linejoin:bevel" /><path
         inkscape:connector-curvature="0"
         d="M 83.83155,164.2095 C 80.10554,191.6109 65.20151,269.7034 65.20151,283.6365 95.77014,256.7244 154.8396,166.9346 204.9268,174.1617 c 85.6504,18.6155 157.8358,-18.7946 158.3553,-49.7611 1.2005,-28.23684 1.863,-50.46982 3.726,-77.62759 C 342.2561,54.73482 104.6885,157.6128 83.83155,164.2095 Z"
         id="path591"
         style="font-size:12px;fill:url(#linearGradient62);fill-opacity:1;fill-rule:evenodd;stroke-width:1" /></g><g
       id="flowRoot3424"
       style="font-style:normal;font-variant:normal;font-weight:normal;font-stretch:normal;font-size:40px;line-height:125%;font-family:'Noto Sans Mono CJK KR';-inkscape-font-specification:'Noto Sans Mono CJK KR';letter-spacing:0px;word-spacing:0px;fill:#ffffff;fill-opacity:1;stroke:#000000;stroke-width:4;stroke-linecap:butt;stroke-linejoin:miter;stroke-miterlimit:4;stroke-dasharray:none;stroke-opacity:1"
       transform="translate(-21.28573,-129.52305)"><path
         id="path4437"
         style="font-style:normal;font-variant:normal;font-weight:bold;font-stretch:normal;font-size:180px;font-family:'Qlassik Bold';-inkscape-font-specification:'Qlassik Bold, Bold';fill:#ffffff;fill-opacity:1;stroke:#000000;stroke-width:4;stroke-miterlimit:4;stroke-dasharray:none;stroke-opacity:1"
         d="m 59.554844,261.56986 c -17.1,0 -28.8,8.46 -28.8,22.68 0,6.3 2.7,11.88 8.28,17.46 l 4.5,3.6 c 3.42,2.88 8.1,6.66 12.24,9.54 -0.36,-0.36 1.44,0.9 2.16,1.44 5.04,3.42 6.84,6.84 6.84,10.8 0,5.4 -3.24,9.18 -8.64,9.72 -1.08,0.18 -2.34,0.36 -3.24,0.36 -4.32,0 -9,-1.26 -12.78,-2.88 l 0,0.18 c -1.98,-1.08 -3.78,-1.62 -5.4,-1.62 l -1.8,0 c -2.16,2.88 -3.6,7.02 -3.6,9.72 2.16,5.04 12.24,8.64 23.94,8.64 17.46,0 31.5,-8.64 31.5,-25.74 0,-7.56 -3.6,-13.86 -11.16,-20.16 -3.06,-2.34 -7.02,-5.04 -10.44,-7.74 -2.88,-1.98 -5.58,-3.96 -7.56,-5.4 -3.78,-3.06 -4.86,-5.58 -4.86,-8.46 0,-4.86 3.96,-8.28 10.26,-8.28 2.7,0 5.4,0.54 8.1,1.62 1.98,0.72 3.96,1.08 5.94,1.44 0.9,0.18 2.88,0.54 3.6,0.72 1.98,-2.52 3.6,-6.84 3.6,-9.18 -0.72,-2.52 -6.12,-7.2 -17.46,-8.1 -1.26,-0.18 -3.24,-0.36 -5.22,-0.36 z"
         inkscape:connector-curvature="0" /><path
         id="path4439"
         style="font-style:normal;font-variant:normal;font-weight:bold;font-stretch:normal;font-size:180px;font-family:'Qlassik Bold';-inkscape-font-specification:'Qlassik Bold, Bold';fill:#ffffff;fill-opacity:1;stroke:#000000;stroke-width:4;stroke-miterlimit:4;stroke-dasharray:none;stroke-opacity:1"
         d="m 99.959219,349.40986 c 10.080001,0 12.240001,0 15.480001,-2.52 1.62,-2.88 1.98,-5.76 1.98,-9.36 l 0,-53.82 c 3.96,-3.78 9.54,-7.2 15.66,-7.2 5.4,0 9.18,2.88 9.72,13.5 0.36,1.8 0.36,4.14 0.36,7.38 l 0,43.02 c 0,3.24 0.54,6.12 1.62,9 12.78,0 15.48,-0.54 17.64,-2.88 -0.18,-6.48 -0.18,-14.94 -0.18,-24.66 l 0,-26.1 c 0,-24.3 -5.22,-34.2 -23.94,-34.2 -4.86,0 -9,0.9 -12.24,2.16 -2.7,1.26 -5.76,2.7 -8.64,4.68 l 0,-34.2 c 0,-7.38 -0.54,-9.9 -1.98,-12.6 -9,0 -14.76,0.9 -17.100001,5.58 0.18,3.96 0.36,9.18 0.36,16.56 l 0,67.86 c 0,14.58 -0.18,26.64 -0.36,36.9 l 1.62,0.9 z"
         inkscape:connector-curvature="0" /><path
         id="path4441"
         style="font-style:normal;font-variant:normal;font-weight:bold;font-stretch:normal;font-size:180px;font-family:'Qlassik Bold';-inkscape-font-specification:'Qlassik Bold, Bold';fill:#ffffff;fill-opacity:1;stroke:#000000;stroke-width:4;stroke-miterlimit:4;stroke-dasharray:none;stroke-opacity:1"
         d="m 197.32797,263.36986 c -8.1,0 -14.22,0.54 -16.38,5.04 0.18,4.68 0.36,10.26 0.36,18.36 l 0,31.32 c 0,5.76 -0.18,11.34 -0.18,16.56 l 0,14.76 c 12.42,-0.36 15.48,-0.36 16.74,-2.34 1.8,-2.88 2.52,-5.76 2.52,-9.9 l 0,-60.3 c 0,-7.56 -0.18,-10.08 -1.62,-12.96 l -1.44,-0.54 z m -16.92,-29.34 c 0,7.74 2.7,11.16 10.08,11.16 8.64,0 10.8,-4.68 10.98,-11.52 0.18,-6.84 -1.44,-10.44 -9.9,-10.44 -7.56,0 -11.16,3.78 -11.16,10.8 z"
         inkscape:connector-curvature="0" /><path
         id="path4443"
         style="font-style:normal;font-variant:normal;font-weight:bold;font-stretch:normal;font-size:180px;font-family:'Qlassik Bold';-inkscape-font-specification:'Qlassik Bold, Bold';fill:#ffffff;fill-opacity:1;stroke:#000000;stroke-width:4;stroke-miterlimit:4;stroke-dasharray:none;stroke-opacity:1"
         d="m 252.56828,276.50986 c 9.18,0 12.24,4.68 12.24,17.64 l 0,47.16 c 0,2.7 0.54,5.4 1.98,8.1 11.88,0 15.12,-0.72 17.46,-2.88 -0.18,-7.02 -0.36,-15.84 -0.36,-25.56 l 0,-27.18 c 0,-20.52 -4.32,-32.04 -26.82,-32.04 -4.32,0 -7.92,0.72 -11.7,1.98 -3.24,1.08 -7.02,2.88 -10.62,5.4 -1.08,-2.16 -3.24,-3.78 -6.48,-3.78 -0.36,0 -1.44,0 -2.52,0.36 -3.96,1.62 -6.3,3.06 -7.56,4.5 1.26,3.6 1.98,7.74 1.98,13.5 l 0,30.24 c 0,13.68 -0.18,25.92 -0.36,35.46 l 4.68,0 c 7.92,-0.18 9.9,-0.18 12.42,-2.34 1.8,-2.52 2.16,-4.68 2.16,-8.64 l 0,-55.44 -0.54,0.54 c 3.6,-3.96 8.28,-7.02 14.04,-7.02 z"
         inkscape:connector-curvature="0" /><path
         id="path4445"
         style="font-style:normal;font-variant:normal;font-weight:bold;font-stretch:normal;font-size:180px;font-family:'Qlassik Bold';-inkscape-font-specification:'Qlassik Bold, Bold';fill:#ffffff;fill-opacity:1;stroke:#000000;stroke-width:4;stroke-miterlimit:4;stroke-dasharray:none;stroke-opacity:1"
         d="m 303.12859,275.06986 c 0.36,1.98 1.08,5.04 3.6,7.74 2.7,0 4.68,-0.54 6.66,-1.44 5.22,-1.98 12.24,-4.5 18,-4.5 5.94,0 6.66,3.96 6.66,11.52 l 0,8.82 c -1.08,-0.18 -2.34,-0.18 -3.96,-0.18 -1.62,0 -3.6,0 -5.22,0.18 -11.34,1.26 -31.5,7.56 -31.5,29.34 0,16.74 11.7,24.3 23.94,24.3 5.04,0 9.54,-0.36 13.86,-2.52 1.08,-0.72 3.06,-1.98 3.96,-2.7 2.34,2.52 6.66,5.22 10.8,5.22 5.58,-0.18 9.54,-2.7 11.16,-5.04 0,-1.08 0.18,-5.22 0.36,-7.74 -5.58,1.08 -5.04,-7.02 -5.04,-7.02 0,-3.24 0.18,-11.34 0.18,-15.48 0.18,-6.66 0.18,-13.68 0.18,-20.34 l 0,-7.92 c 0,-15.66 -4.68,-24.66 -19.08,-25.56 -2.88,-0.18 -3.42,-0.18 -6.3,-0.18 -12.6,0.36 -23.94,5.4 -27.9,9 -0.36,0.9 -0.54,1.8 -0.54,2.34 0,0.72 0,1.26 0.36,2.34 l -0.18,-0.18 z m 34.56,54.54 c -0.18,1.08 -0.36,2.34 -0.36,2.16 l 0.18,-0.18 c -2.16,2.88 -7.56,5.22 -12.24,5.22 l -1.08,0 c -4.5,-0.36 -7.74,-3.42 -7.74,-11.7 0,-10.62 6.66,-14.04 14.4,-15.48 l -0.18,0 c 1.8,-0.18 3.78,-0.36 5.58,-0.36 l 1.8,0 0,11.88 c 0,3.6 0,6.3 -0.36,8.46 z"
         inkscape:connector-curvature="0" /><path
         id="path4447"
         style="font-style:normal;font-variant:normal;font-weight:bold;font-stretch:normal;font-size:180px;font-family:'Qlassik Bold';-inkscape-font-specification:'Qlassik Bold, Bold';fill:#ffffff;fill-opacity:1;stroke:#000000;stroke-width:4;stroke-miterlimit:4;stroke-dasharray:none;stroke-opacity:1"
         d="m 434.76203,292.70986 c 0,-5.76 -1.26,-10.08 -4.14,-14.58 2.16,0.18 3.24,0.18 5.76,0.18 4.32,0 6.48,-3.42 6.48,-8.1 0,-2.52 -0.72,-4.68 -1.44,-6.12 -1.8,0 -5.58,0.18 -7.92,0.36 l 0.18,0 c -3.78,0.18 -8.82,0.36 -12.78,0.54 -0.54,0.36 -0.36,0.54 0,0.72 -4.14,-1.98 -9.72,-4.14 -16.02,-4.14 -18.54,0 -31.86,11.52 -31.86,31.86 0,11.16 3.78,19.62 11.52,24.48 -0.72,0.72 -0.54,0.9 -1.44,1.62 -2.7,2.52 -6.12,5.4 -8.64,7.92 -1.44,1.8 -2.34,3.06 -2.34,4.32 0.18,5.4 4.68,10.26 13.5,12.96 0,0 5.4,1.8 13.68,2.52 1.08,0 2.34,0.18 3.42,0.18 4.14,0.18 8.1,0.36 12.06,0.9 6.12,0.72 7.92,3.78 9.36,7.56 0,0.54 0,1.98 0,2.52 0.18,7.38 -9,18.72 -20.88,21.96 -3.24,0.54 -8.46,1.62 -12.06,1.62 -2.34,0 -4.14,-0.36 -4.5,-1.8 -0.72,-3.24 5.58,-9.54 11.34,-14.4 3.24,-3.06 2.16,-9.18 -2.34,-11.52 -11.34,7.56 -29.52,23.04 -27.72,32.04 1.8,5.94 10.08,7.92 19.08,7.92 5.76,0 12.06,-0.72 16.74,-1.62 22.32,-5.22 38.7,-23.22 38.7,-39.06 -0.54,-10.62 -8.28,-16.92 -19.44,-19.08 -1.62,-0.36 -4.14,-0.54 -6.48,-0.72 -2.88,-0.18 -5.76,-0.54 -8.64,-0.72 l -7.02,-0.54 c -5.94,-0.54 -9.18,-2.16 -9.18,-3.78 0,-0.72 0.18,-1.8 0.9,-2.52 l 3.6,-3.6 c 2.16,0.36 4.32,0.54 7.56,0.54 19.26,0 30.96,-11.16 30.96,-30.42 z m -32.04,-19.08 c 8.1,0 12.6,6.48 13.68,17.46 0.9,11.34 -2.34,19.8 -10.44,19.8 -8.82,0 -13.14,-7.02 -14.04,-18.36 -1.26,-12.78 3.78,-18.9 10.8,-18.9 z"
         inkscape:connector-curvature="0" /><path
         id="path4449"
         style="font-style:normal;font-variant:normal;font-weight:bold;font-stretch:normal;font-size:180px;font-family:'Qlassik Bold';-inkscape-font-specification:'Qlassik Bold, Bold';fill:#ffffff;fill-opacity:1;stroke:#000000;stroke-width:4;stroke-miterlimit:4;stroke-dasharray:none;stroke-opacity:1"
         d="m 487.43734,336.26986 c -11.16,0 -18.72,-5.76 -19.08,-23.76 2.88,0.18 3.42,0 6.3,0 8.46,0 17.64,-0.36 23.22,-1.08 5.22,-0.72 11.88,-3.06 14.04,-4.86 0.54,-2.7 0.9,-6.66 0.9,-10.62 0,-3.06 -0.18,-5.94 -0.36,-8.64 -1.44,-15.66 -10.26,-25.74 -27.36,-25.74 -20.7,0 -35.82,12.96 -35.82,47.88 0,14.76 3.24,26.1 9.9,32.94 7.2,7.2 16.38,8.82 25.38,8.82 5.76,0 11.34,-1.08 14.04,-1.8 l -0.18,0 c 5.58,-1.44 11.52,-5.58 11.7,-9.36 -0.18,-1.98 -0.72,-5.58 -1.8,-9 -7.02,3.78 -13.86,5.22 -20.88,5.22 z m -4.14,-61.38 c 6.84,0 10.08,4.68 10.98,14.22 l 0,1.8 c 0,0.72 0.18,1.26 0.18,1.98 0,2.16 -0.36,4.14 -0.72,5.4 -0.9,0.54 -1.8,0.54 -2.7,0.72 -3.6,0.36 -10.98,0.54 -17.28,0.54 l -5.04,0 c 1.08,-16.2 7.38,-23.76 13.86,-24.66 l 0.72,0 z"
         inkscape:connector-curvature="0" /></g></g></svg>